<svg width="148" height="17" viewBox="0 0 148 17" fill="none" xmlns="http://www.w3.org/2000/svg">
<path d="M8.40625 6.89844V8.25781H0.609375V6.89844H8.40625ZM5.23438 3.57812V11.8594H3.78906V3.57812H5.23438ZM15.0934 1.5625V13H13.6481V3.36719L10.7341 4.42969V3.125L14.8669 1.5625H15.0934ZM24.4134 1.5625V13H22.9681V3.36719L20.0541 4.42969V3.125L24.1869 1.5625H24.4134ZM33.3737 8.45312V8.375C33.3737 7.23958 33.5014 6.21354 33.7566 5.29688C34.0118 4.375 34.3373 3.56771 34.7331 2.875C35.129 2.18229 35.5456 1.60938 35.9831 1.15625C36.4206 0.697917 36.8243 0.367188 37.1941 0.164062L37.4987 1.11719C37.1915 1.35156 36.879 1.67448 36.5612 2.08594C36.2487 2.4974 35.9597 3.0026 35.6941 3.60156C35.4336 4.20052 35.2227 4.89583 35.0612 5.6875C34.8998 6.47917 34.8191 7.36979 34.8191 8.35938V8.46875C34.8191 9.45833 34.8998 10.3516 35.0612 11.1484C35.2227 11.9401 35.4336 12.638 35.6941 13.2422C35.9597 13.8464 36.2487 14.3594 36.5612 14.7812C36.879 15.2083 37.1915 15.5469 37.4987 15.7969L37.1941 16.6719C36.8243 16.4688 36.4206 16.138 35.9831 15.6797C35.5456 15.2266 35.129 14.6536 34.7331 13.9609C34.3373 13.2734 34.0118 12.4688 33.7566 11.5469C33.5014 10.625 33.3737 9.59375 33.3737 8.45312ZM46.2172 6.40625V8.14062C46.2172 9.07292 46.1339 9.85938 45.9672 10.5C45.8005 11.1406 45.5609 11.6562 45.2484 12.0469C44.9359 12.4375 44.5583 12.7214 44.1156 12.8984C43.6781 13.0703 43.1833 13.1562 42.6312 13.1562C42.1937 13.1562 41.7901 13.1016 41.4203 12.9922C41.0505 12.8828 40.7172 12.7083 40.4203 12.4688C40.1286 12.224 39.8786 11.9062 39.6703 11.5156C39.462 11.125 39.3031 10.651 39.1937 10.0938C39.0844 9.53646 39.0297 8.88542 39.0297 8.14062V6.40625C39.0297 5.47396 39.113 4.69271 39.2797 4.0625C39.4516 3.43229 39.6937 2.92708 40.0062 2.54688C40.3187 2.16146 40.6937 1.88542 41.1312 1.71875C41.574 1.55208 42.0687 1.46875 42.6156 1.46875C43.0583 1.46875 43.4646 1.52344 43.8344 1.63281C44.2094 1.73698 44.5427 1.90625 44.8344 2.14062C45.126 2.36979 45.3734 2.67708 45.5766 3.0625C45.7849 3.44271 45.9437 3.90885 46.0531 4.46094C46.1625 5.01302 46.2172 5.66146 46.2172 6.40625ZM44.7641 8.375V6.16406C44.7641 5.65365 44.7328 5.20573 44.6703 4.82031C44.613 4.42969 44.5271 4.09635 44.4125 3.82031C44.2979 3.54427 44.1521 3.32031 43.975 3.14844C43.8031 2.97656 43.6026 2.85156 43.3734 2.77344C43.1495 2.6901 42.8969 2.64844 42.6156 2.64844C42.2719 2.64844 41.9672 2.71354 41.7016 2.84375C41.4359 2.96875 41.212 3.16927 41.0297 3.44531C40.8526 3.72135 40.7172 4.08333 40.6234 4.53125C40.5297 4.97917 40.4828 5.52344 40.4828 6.16406V8.375C40.4828 8.88542 40.5115 9.33594 40.5687 9.72656C40.6312 10.1172 40.7224 10.4557 40.8422 10.7422C40.962 11.0234 41.1078 11.2552 41.2797 11.4375C41.4516 11.6198 41.6495 11.7552 41.8734 11.8438C42.1026 11.9271 42.3552 11.9688 42.6312 11.9688C42.9854 11.9688 43.2953 11.901 43.5609 11.7656C43.8266 11.6302 44.0479 11.4193 44.225 11.1328C44.4073 10.8411 44.5427 10.4688 44.6312 10.0156C44.7198 9.55729 44.7641 9.01042 44.7641 8.375ZM55.5372 6.40625V8.14062C55.5372 9.07292 55.4539 9.85938 55.2872 10.5C55.1205 11.1406 54.8809 11.6562 54.5684 12.0469C54.2559 12.4375 53.8783 12.7214 53.4356 12.8984C52.9981 13.0703 52.5033 13.1562 51.9512 13.1562C51.5137 13.1562 51.1101 13.1016 50.7403 12.9922C50.3705 12.8828 50.0372 12.7083 49.7403 12.4688C49.4486 12.224 49.1986 11.9062 48.9903 11.5156C48.782 11.125 48.6231 10.651 48.5137 10.0938C48.4044 9.53646 48.3497 8.88542 48.3497 8.14062V6.40625C48.3497 5.47396 48.433 4.69271 48.5997 4.0625C48.7716 3.43229 49.0137 2.92708 49.3262 2.54688C49.6387 2.16146 50.0137 1.88542 50.4512 1.71875C50.894 1.55208 51.3887 1.46875 51.9356 1.46875C52.3783 1.46875 52.7846 1.52344 53.1544 1.63281C53.5294 1.73698 53.8627 1.90625 54.1544 2.14062C54.446 2.36979 54.6934 2.67708 54.8966 3.0625C55.1049 3.44271 55.2637 3.90885 55.3731 4.46094C55.4825 5.01302 55.5372 5.66146 55.5372 6.40625ZM54.0841 8.375V6.16406C54.0841 5.65365 54.0528 5.20573 53.9903 4.82031C53.933 4.42969 53.8471 4.09635 53.7325 3.82031C53.6179 3.54427 53.4721 3.32031 53.295 3.14844C53.1231 2.97656 52.9226 2.85156 52.6934 2.77344C52.4695 2.6901 52.2169 2.64844 51.9356 2.64844C51.5919 2.64844 51.2872 2.71354 51.0216 2.84375C50.7559 2.96875 50.532 3.16927 50.3497 3.44531C50.1726 3.72135 50.0372 4.08333 49.9434 4.53125C49.8497 4.97917 49.8028 5.52344 49.8028 6.16406V8.375C49.8028 8.88542 49.8315 9.33594 49.8887 9.72656C49.9512 10.1172 50.0424 10.4557 50.1622 10.7422C50.282 11.0234 50.4278 11.2552 50.5997 11.4375C50.7716 11.6198 50.9695 11.7552 51.1934 11.8438C51.4226 11.9271 51.6752 11.9688 51.9512 11.9688C52.3054 11.9688 52.6153 11.901 52.8809 11.7656C53.1466 11.6302 53.3679 11.4193 53.545 11.1328C53.7273 10.8411 53.8627 10.4688 53.9512 10.0156C54.0398 9.55729 54.0841 9.01042 54.0841 8.375ZM64.8572 6.40625V8.14062C64.8572 9.07292 64.7739 9.85938 64.6072 10.5C64.4405 11.1406 64.2009 11.6562 63.8884 12.0469C63.5759 12.4375 63.1983 12.7214 62.7556 12.8984C62.3181 13.0703 61.8233 13.1562 61.2713 13.1562C60.8338 13.1562 60.4301 13.1016 60.0603 12.9922C59.6905 12.8828 59.3572 12.7083 59.0603 12.4688C58.7686 12.224 58.5186 11.9062 58.3103 11.5156C58.102 11.125 57.9431 10.651 57.8338 10.0938C57.7244 9.53646 57.6697 8.88542 57.6697 8.14062V6.40625C57.6697 5.47396 57.753 4.69271 57.9197 4.0625C58.0916 3.43229 58.3338 2.92708 58.6463 2.54688C58.9588 2.16146 59.3338 1.88542 59.7713 1.71875C60.214 1.55208 60.7088 1.46875 61.2556 1.46875C61.6983 1.46875 62.1046 1.52344 62.4744 1.63281C62.8494 1.73698 63.1827 1.90625 63.4744 2.14062C63.766 2.36979 64.0134 2.67708 64.2166 3.0625C64.4249 3.44271 64.5838 3.90885 64.6931 4.46094C64.8025 5.01302 64.8572 5.66146 64.8572 6.40625ZM63.4041 8.375V6.16406C63.4041 5.65365 63.3728 5.20573 63.3103 4.82031C63.253 4.42969 63.1671 4.09635 63.0525 3.82031C62.9379 3.54427 62.7921 3.32031 62.615 3.14844C62.4431 2.97656 62.2426 2.85156 62.0134 2.77344C61.7895 2.6901 61.5369 2.64844 61.2556 2.64844C60.9119 2.64844 60.6072 2.71354 60.3416 2.84375C60.0759 2.96875 59.852 3.16927 59.6697 3.44531C59.4926 3.72135 59.3572 4.08333 59.2634 4.53125C59.1697 4.97917 59.1228 5.52344 59.1228 6.16406V8.375C59.1228 8.88542 59.1515 9.33594 59.2088 9.72656C59.2713 10.1172 59.3624 10.4557 59.4822 10.7422C59.602 11.0234 59.7478 11.2552 59.9197 11.4375C60.0916 11.6198 60.2895 11.7552 60.5134 11.8438C60.7426 11.9271 60.9952 11.9688 61.2713 11.9688C61.6254 11.9688 61.9353 11.901 62.2009 11.7656C62.4666 11.6302 62.6879 11.4193 62.865 11.1328C63.0473 10.8411 63.1827 10.4688 63.2713 10.0156C63.3598 9.55729 63.4041 9.01042 63.4041 8.375ZM70.5209 8.375V8.45312C70.5209 9.59375 70.3933 10.625 70.1381 11.5469C69.8829 12.4688 69.5574 13.2734 69.1616 13.9609C68.7657 14.6536 68.3491 15.2266 67.9116 15.6797C67.4741 16.138 67.0704 16.4688 66.7006 16.6719L66.3959 15.7969C66.7032 15.5625 67.0131 15.2344 67.3256 14.8125C67.6381 14.3958 67.9272 13.8802 68.1928 13.2656C68.4584 12.6562 68.672 11.9531 68.8334 11.1562C68.9949 10.3542 69.0756 9.45833 69.0756 8.46875V8.35938C69.0756 7.36979 68.9897 6.47656 68.8178 5.67969C68.6459 4.8776 68.422 4.17188 68.1459 3.5625C67.8751 2.95312 67.5834 2.4401 67.2709 2.02344C66.9636 1.60156 66.672 1.27604 66.3959 1.04688L66.7006 0.164062C67.0704 0.367188 67.4741 0.697917 67.9116 1.15625C68.3491 1.60938 68.7657 2.18229 69.1616 2.875C69.5574 3.56771 69.8829 4.375 70.1381 5.29688C70.3933 6.21354 70.5209 7.23958 70.5209 8.375ZM81.9734 1.5625V13H80.5281V3.36719L77.6141 4.42969V3.125L81.7469 1.5625H81.9734ZM91.2934 1.5625V13H89.8481V3.36719L86.9341 4.42969V3.125L91.0669 1.5625H91.2934ZM100.613 1.5625V13H99.1681V3.36719L96.2541 4.42969V3.125L100.387 1.5625H100.613ZM108.348 7.57031V8.75781H104.535V7.57031H108.348ZM114.675 1.5625V13H113.23V3.36719L110.316 4.42969V3.125L114.449 1.5625H114.675ZM123.995 1.5625V13H122.55V3.36719L119.636 4.42969V3.125L123.769 1.5625H123.995ZM131.729 7.57031V8.75781H127.917V7.57031H131.729ZM138.057 1.5625V13H136.612V3.36719L133.698 4.42969V3.125L137.831 1.5625H138.057ZM147.377 1.5625V13H145.932V3.36719L143.018 4.42969V3.125L147.151 1.5625H147.377Z" fill="#434455"/>
</svg>
