<svg width="151" height="17" viewBox="0 0 151 17" fill="none" xmlns="http://www.w3.org/2000/svg">
<path d="M1.67188 4.54688V13H0.21875V4.54688H1.67188ZM0.109375 2.30469C0.109375 2.07031 0.179688 1.8724 0.320312 1.71094C0.466146 1.54948 0.679688 1.46875 0.960938 1.46875C1.23698 1.46875 1.44792 1.54948 1.59375 1.71094C1.74479 1.8724 1.82031 2.07031 1.82031 2.30469C1.82031 2.52865 1.74479 2.72135 1.59375 2.88281C1.44792 3.03906 1.23698 3.11719 0.960938 3.11719C0.679688 3.11719 0.466146 3.03906 0.320312 2.88281C0.179688 2.72135 0.109375 2.52865 0.109375 2.30469ZM5.7575 6.35156V13H4.31219V4.54688H5.67938L5.7575 6.35156ZM5.41375 8.45312L4.81219 8.42969C4.8174 7.85156 4.90333 7.31771 5.07 6.82812C5.23667 6.33333 5.47104 5.90365 5.77313 5.53906C6.07521 5.17448 6.43458 4.89323 6.85125 4.69531C7.27313 4.49219 7.73927 4.39062 8.24969 4.39062C8.66635 4.39062 9.04135 4.44792 9.37469 4.5625C9.70802 4.67188 9.99188 4.84896 10.2263 5.09375C10.4658 5.33854 10.6481 5.65625 10.7731 6.04688C10.8981 6.43229 10.9606 6.90365 10.9606 7.46094V13H9.5075V7.44531C9.5075 7.0026 9.4424 6.64844 9.31219 6.38281C9.18198 6.11198 8.99188 5.91667 8.74188 5.79688C8.49188 5.67188 8.18458 5.60938 7.82 5.60938C7.46063 5.60938 7.1325 5.6849 6.83563 5.83594C6.54396 5.98698 6.29135 6.19531 6.07781 6.46094C5.86948 6.72656 5.70542 7.03125 5.58563 7.375C5.47104 7.71354 5.41375 8.07292 5.41375 8.45312ZM15.6322 13H14.1869V3.65625C14.1869 3.04688 14.2963 2.53385 14.515 2.11719C14.739 1.69531 15.0593 1.3776 15.4759 1.16406C15.8926 0.945312 16.3874 0.835938 16.9603 0.835938C17.127 0.835938 17.2936 0.846354 17.4603 0.867188C17.6322 0.888021 17.7989 0.919271 17.9603 0.960938L17.8822 2.14062C17.7728 2.11458 17.6478 2.09635 17.5072 2.08594C17.3718 2.07552 17.2364 2.07031 17.1009 2.07031C16.7936 2.07031 16.528 2.13281 16.3041 2.25781C16.0853 2.3776 15.9186 2.55469 15.8041 2.78906C15.6895 3.02344 15.6322 3.3125 15.6322 3.65625V13ZM17.4291 4.54688V5.65625H12.8509V4.54688H17.4291ZM18.9756 8.86719V8.6875C18.9756 8.07812 19.0642 7.51302 19.2412 6.99219C19.4183 6.46615 19.6735 6.01042 20.0069 5.625C20.3402 5.23438 20.7439 4.93229 21.2178 4.71875C21.6918 4.5 22.223 4.39062 22.8116 4.39062C23.4053 4.39062 23.9392 4.5 24.4131 4.71875C24.8923 4.93229 25.2985 5.23438 25.6319 5.625C25.9704 6.01042 26.2282 6.46615 26.4053 6.99219C26.5824 7.51302 26.6709 8.07812 26.6709 8.6875V8.86719C26.6709 9.47656 26.5824 10.0417 26.4053 10.5625C26.2282 11.0833 25.9704 11.5391 25.6319 11.9297C25.2985 12.3151 24.8949 12.6172 24.4209 12.8359C23.9522 13.0495 23.4209 13.1562 22.8272 13.1562C22.2334 13.1562 21.6996 13.0495 21.2256 12.8359C20.7517 12.6172 20.3454 12.3151 20.0069 11.9297C19.6735 11.5391 19.4183 11.0833 19.2412 10.5625C19.0642 10.0417 18.9756 9.47656 18.9756 8.86719ZM20.4209 8.6875V8.86719C20.4209 9.28906 20.4704 9.6875 20.5694 10.0625C20.6683 10.4323 20.8168 10.7604 21.0147 11.0469C21.2178 11.3333 21.4704 11.5599 21.7725 11.7266C22.0746 11.888 22.4261 11.9688 22.8272 11.9688C23.223 11.9688 23.5694 11.888 23.8662 11.7266C24.1683 11.5599 24.4183 11.3333 24.6162 11.0469C24.8142 10.7604 24.9626 10.4323 25.0616 10.0625C25.1657 9.6875 25.2178 9.28906 25.2178 8.86719V8.6875C25.2178 8.27083 25.1657 7.8776 25.0616 7.50781C24.9626 7.13281 24.8116 6.80208 24.6084 6.51562C24.4105 6.22396 24.1605 5.99479 23.8584 5.82812C23.5616 5.66146 23.2126 5.57812 22.8116 5.57812C22.4157 5.57812 22.0668 5.66146 21.7647 5.82812C21.4678 5.99479 21.2178 6.22396 21.0147 6.51562C20.8168 6.80208 20.6683 7.13281 20.5694 7.50781C20.4704 7.8776 20.4209 8.27083 20.4209 8.6875ZM41.2644 9.07031C41.2435 9.54948 41.1706 10.0312 41.0456 10.5156C40.9206 10.9948 40.7331 11.4349 40.4831 11.8359C40.2331 12.237 39.9076 12.5599 39.5066 12.8047C39.1107 13.0443 38.6316 13.1641 38.0691 13.1641C37.7097 13.1641 37.3946 13.1016 37.1238 12.9766C36.8581 12.8464 36.6394 12.6615 36.4675 12.4219C36.3008 12.1823 36.1836 11.8932 36.1159 11.5547C36.0534 11.2161 36.043 10.8385 36.0847 10.4219L36.4831 6.09375H37.6316L37.2331 10.4219C37.2019 10.8021 37.2097 11.112 37.2566 11.3516C37.3086 11.5911 37.3868 11.776 37.4909 11.9062C37.5951 12.0312 37.7123 12.1172 37.8425 12.1641C37.9779 12.2109 38.1081 12.2344 38.2331 12.2344C38.5456 12.2344 38.8243 12.1536 39.0691 11.9922C39.3139 11.8255 39.5196 11.599 39.6863 11.3125C39.8581 11.0208 39.9909 10.6849 40.0847 10.3047C40.1784 9.91927 40.2357 9.50781 40.2566 9.07031C40.293 8.29427 40.2566 7.58073 40.1472 6.92969C40.043 6.27865 39.8633 5.70052 39.6081 5.19531C39.3581 4.6901 39.03 4.26302 38.6238 3.91406C38.2175 3.5651 37.7331 3.29948 37.1706 3.11719C36.6081 2.9349 35.9649 2.84375 35.2409 2.84375C34.5847 2.84375 33.9779 2.94531 33.4206 3.14844C32.8685 3.34635 32.3711 3.63281 31.9284 4.00781C31.4909 4.38281 31.1133 4.83333 30.7956 5.35938C30.4831 5.88542 30.2357 6.47917 30.0534 7.14062C29.8764 7.79688 29.7722 8.50521 29.7409 9.26562C29.7045 10.0469 29.7461 10.7656 29.8659 11.4219C29.9857 12.0729 30.1784 12.6536 30.4441 13.1641C30.7149 13.6797 31.056 14.1146 31.4675 14.4688C31.879 14.8281 32.3555 15.099 32.8972 15.2812C33.4389 15.4688 34.043 15.5625 34.7097 15.5625C35.168 15.5625 35.6316 15.5078 36.1003 15.3984C36.5743 15.2891 36.9701 15.1406 37.2878 14.9531L37.5847 15.8438C37.2201 16.0781 36.7644 16.2526 36.2175 16.3672C35.6758 16.4818 35.1628 16.5391 34.6784 16.5391C33.8868 16.5391 33.1628 16.4297 32.5066 16.2109C31.8555 15.9974 31.2774 15.6823 30.7722 15.2656C30.2722 14.8542 29.8555 14.3516 29.5222 13.7578C29.1889 13.1693 28.9441 12.4974 28.7878 11.7422C28.6316 10.987 28.5717 10.1615 28.6081 9.26562C28.6446 8.41146 28.7722 7.60677 28.9909 6.85156C29.2149 6.09635 29.5196 5.41146 29.905 4.79688C30.2904 4.18229 30.7488 3.65365 31.28 3.21094C31.8165 2.76302 32.418 2.41927 33.0847 2.17969C33.7566 1.9401 34.4857 1.82031 35.2722 1.82031C36.0743 1.82031 36.8008 1.92969 37.4519 2.14844C38.1029 2.36719 38.6732 2.68229 39.1628 3.09375C39.6576 3.50521 40.0665 4.00781 40.3894 4.60156C40.7123 5.19531 40.9467 5.86719 41.0925 6.61719C41.2435 7.36719 41.3008 8.1849 41.2644 9.07031ZM33.2409 9.73438C33.2045 10.099 33.2045 10.4245 33.2409 10.7109C33.2774 10.9974 33.3477 11.2396 33.4519 11.4375C33.556 11.6354 33.6915 11.7865 33.8581 11.8906C34.03 11.9896 34.2305 12.0391 34.4597 12.0391C34.6107 12.0391 34.7696 12.0026 34.9363 11.9297C35.1029 11.8516 35.267 11.7318 35.4284 11.5703C35.5899 11.4089 35.7409 11.1979 35.8816 10.9375C36.0222 10.6771 36.1394 10.3646 36.2331 10L36.7488 10.5625C36.629 10.9896 36.4727 11.3646 36.28 11.6875C36.0925 12.0104 35.8816 12.2812 35.6472 12.5C35.4128 12.7188 35.1628 12.8854 34.8972 13C34.6368 13.1094 34.3711 13.1641 34.1003 13.1641C33.7201 13.1641 33.3868 13.0833 33.1003 12.9219C32.8139 12.7552 32.5821 12.5208 32.405 12.2188C32.2279 11.9167 32.1029 11.5573 32.03 11.1406C31.9623 10.7188 31.9519 10.25 31.9988 9.73438C32.0456 9.1875 32.142 8.68229 32.2878 8.21875C32.4336 7.75521 32.6133 7.34115 32.8269 6.97656C33.0456 6.61198 33.2904 6.30208 33.5613 6.04688C33.8373 5.79167 34.129 5.59896 34.4363 5.46875C34.7435 5.33333 35.0586 5.26562 35.3816 5.26562C35.9441 5.26562 36.3868 5.34896 36.7097 5.51562C37.0326 5.67708 37.3399 5.86979 37.6316 6.09375L36.9675 6.86719C36.8165 6.72135 36.6185 6.58594 36.3738 6.46094C36.129 6.33594 35.8399 6.27344 35.5066 6.27344C35.2201 6.27344 34.9519 6.34635 34.7019 6.49219C34.4519 6.63802 34.2253 6.85677 34.0222 7.14844C33.8243 7.4401 33.6576 7.80208 33.5222 8.23438C33.3868 8.66146 33.293 9.16146 33.2409 9.73438ZM48.8266 11.3594V1H50.2797V13H48.9516L48.8266 11.3594ZM43.1391 8.86719V8.70312C43.1391 8.05729 43.2172 7.47135 43.3734 6.94531C43.5349 6.41406 43.7615 5.95833 44.0531 5.57812C44.35 5.19792 44.7016 4.90625 45.1078 4.70312C45.5193 4.49479 45.9776 4.39062 46.4828 4.39062C47.0141 4.39062 47.4776 4.48438 47.8734 4.67188C48.2745 4.85417 48.613 5.1224 48.8891 5.47656C49.1703 5.82552 49.3917 6.2474 49.5531 6.74219C49.7146 7.23698 49.8266 7.79688 49.8891 8.42188V9.14062C49.8318 9.76042 49.7198 10.3177 49.5531 10.8125C49.3917 11.3073 49.1703 11.7292 48.8891 12.0781C48.613 12.4271 48.2745 12.6953 47.8734 12.8828C47.4724 13.0651 47.0036 13.1562 46.4672 13.1562C45.9724 13.1562 45.5193 13.0495 45.1078 12.8359C44.7016 12.6224 44.35 12.3229 44.0531 11.9375C43.7615 11.5521 43.5349 11.099 43.3734 10.5781C43.2172 10.0521 43.1391 9.48177 43.1391 8.86719ZM44.5922 8.70312V8.86719C44.5922 9.28906 44.6339 9.6849 44.7172 10.0547C44.8057 10.4245 44.9411 10.75 45.1234 11.0312C45.3057 11.3125 45.5375 11.5339 45.8187 11.6953C46.1 11.8516 46.4359 11.9297 46.8266 11.9297C47.3057 11.9297 47.699 11.8281 48.0062 11.625C48.3187 11.4219 48.5687 11.1536 48.7562 10.8203C48.9437 10.487 49.0896 10.125 49.1937 9.73438V7.85156C49.1312 7.5651 49.0401 7.28906 48.9203 7.02344C48.8057 6.7526 48.6547 6.51302 48.4672 6.30469C48.2849 6.09115 48.0583 5.92188 47.7875 5.79688C47.5219 5.67188 47.2068 5.60938 46.8422 5.60938C46.4464 5.60938 46.1052 5.69271 45.8187 5.85938C45.5375 6.02083 45.3057 6.24479 45.1234 6.53125C44.9411 6.8125 44.8057 7.14062 44.7172 7.51562C44.6339 7.88542 44.5922 8.28125 44.5922 8.70312ZM56.3575 13.1562C55.769 13.1562 55.2351 13.0573 54.7559 12.8594C54.282 12.6562 53.8731 12.3724 53.5294 12.0078C53.1908 11.6432 52.9304 11.2109 52.7481 10.7109C52.5658 10.2109 52.4747 9.66406 52.4747 9.07031V8.74219C52.4747 8.05469 52.5762 7.44271 52.7794 6.90625C52.9825 6.36458 53.2585 5.90625 53.6075 5.53125C53.9565 5.15625 54.3523 4.8724 54.795 4.67969C55.2377 4.48698 55.696 4.39062 56.17 4.39062C56.7742 4.39062 57.295 4.49479 57.7325 4.70312C58.1752 4.91146 58.5372 5.20312 58.8184 5.57812C59.0997 5.94792 59.308 6.38542 59.4434 6.89062C59.5789 7.39062 59.6466 7.9375 59.6466 8.53125V9.17969H53.3341V8H58.2012V7.89062C58.1804 7.51562 58.1023 7.15104 57.9669 6.79688C57.8367 6.44271 57.6283 6.15104 57.3419 5.92188C57.0554 5.69271 56.6648 5.57812 56.17 5.57812C55.8419 5.57812 55.5398 5.64844 55.2637 5.78906C54.9877 5.92448 54.7507 6.1276 54.5528 6.39844C54.3549 6.66927 54.2012 7 54.0919 7.39062C53.9825 7.78125 53.9278 8.23177 53.9278 8.74219V9.07031C53.9278 9.47135 53.9825 9.84896 54.0919 10.2031C54.2065 10.5521 54.3705 10.8594 54.5841 11.125C54.8028 11.3906 55.0658 11.599 55.3731 11.75C55.6856 11.901 56.0398 11.9766 56.4356 11.9766C56.946 11.9766 57.3783 11.8724 57.7325 11.6641C58.0867 11.4557 58.3966 11.1771 58.6622 10.8281L59.5372 11.5234C59.3549 11.7995 59.1231 12.0625 58.8419 12.3125C58.5606 12.5625 58.2143 12.7656 57.8028 12.9219C57.3966 13.0781 56.9148 13.1562 56.3575 13.1562ZM64.115 11.6953L66.4275 4.54688H67.9041L64.865 13H63.8963L64.115 11.6953ZM62.1853 4.54688L64.5681 11.7344L64.7322 13H63.7634L60.7009 4.54688H62.1853ZM74.5366 10.7578C74.5366 10.5495 74.4897 10.3568 74.3959 10.1797C74.3074 9.9974 74.1225 9.83333 73.8412 9.6875C73.5652 9.53646 73.1485 9.40625 72.5912 9.29688C72.1225 9.19792 71.698 9.08073 71.3178 8.94531C70.9428 8.8099 70.6225 8.64583 70.3569 8.45312C70.0965 8.26042 69.8959 8.03385 69.7553 7.77344C69.6147 7.51302 69.5444 7.20833 69.5444 6.85938C69.5444 6.52604 69.6173 6.21094 69.7631 5.91406C69.9142 5.61719 70.1251 5.35417 70.3959 5.125C70.672 4.89583 71.0027 4.71615 71.3881 4.58594C71.7735 4.45573 72.2032 4.39062 72.6772 4.39062C73.3543 4.39062 73.9324 4.51042 74.4116 4.75C74.8907 4.98958 75.2579 5.3099 75.5131 5.71094C75.7683 6.10677 75.8959 6.54688 75.8959 7.03125H74.4506C74.4506 6.79688 74.3803 6.57031 74.2397 6.35156C74.1043 6.1276 73.9037 5.94271 73.6381 5.79688C73.3777 5.65104 73.0574 5.57812 72.6772 5.57812C72.2761 5.57812 71.9506 5.64062 71.7006 5.76562C71.4558 5.88542 71.2761 6.03906 71.1616 6.22656C71.0522 6.41406 70.9975 6.61198 70.9975 6.82031C70.9975 6.97656 71.0235 7.11719 71.0756 7.24219C71.1329 7.36198 71.2319 7.47396 71.3725 7.57812C71.5131 7.67708 71.711 7.77083 71.9662 7.85938C72.2215 7.94792 72.547 8.03646 72.9428 8.125C73.6355 8.28125 74.2058 8.46875 74.6537 8.6875C75.1017 8.90625 75.435 9.17448 75.6537 9.49219C75.8725 9.8099 75.9819 10.1953 75.9819 10.6484C75.9819 11.0182 75.9037 11.3568 75.7475 11.6641C75.5965 11.9714 75.3751 12.237 75.0834 12.4609C74.797 12.6797 74.4532 12.8516 74.0522 12.9766C73.6564 13.0964 73.211 13.1562 72.7162 13.1562C71.9715 13.1562 71.3412 13.0234 70.8256 12.7578C70.31 12.4922 69.9194 12.1484 69.6537 11.7266C69.3881 11.3047 69.2553 10.8594 69.2553 10.3906H70.7084C70.7293 10.7865 70.8439 11.1016 71.0522 11.3359C71.2605 11.5651 71.5157 11.7292 71.8178 11.8281C72.1199 11.9219 72.4194 11.9688 72.7162 11.9688C73.1121 11.9688 73.4428 11.9167 73.7084 11.8125C73.9793 11.7083 74.185 11.5651 74.3256 11.3828C74.4662 11.2005 74.5366 10.9922 74.5366 10.7578ZM81.7394 4.54688V5.65625H77.1691V4.54688H81.7394ZM78.7159 2.49219H80.1612V10.9062C80.1612 11.1927 80.2055 11.4089 80.2941 11.5547C80.3826 11.7005 80.4972 11.7969 80.6378 11.8438C80.7784 11.8906 80.9295 11.9141 81.0909 11.9141C81.2107 11.9141 81.3357 11.9036 81.4659 11.8828C81.6014 11.8568 81.7029 11.8359 81.7706 11.8203L81.7784 13C81.6639 13.0365 81.5128 13.0703 81.3253 13.1016C81.143 13.138 80.9217 13.1562 80.6612 13.1562C80.3071 13.1562 79.9816 13.0859 79.6847 12.9453C79.3878 12.8047 79.1508 12.5703 78.9737 12.2422C78.8019 11.9089 78.7159 11.4609 78.7159 10.8984V2.49219ZM88.9266 11.0469V4.54688H90.3797V13H88.9969L88.9266 11.0469ZM89.2 9.26562L89.8016 9.25C89.8016 9.8125 89.7417 10.3333 89.6219 10.8125C89.5073 11.2865 89.3198 11.6979 89.0594 12.0469C88.799 12.3958 88.4578 12.6693 88.0359 12.8672C87.6141 13.0599 87.101 13.1562 86.4969 13.1562C86.0854 13.1562 85.7078 13.0964 85.3641 12.9766C85.0255 12.8568 84.7339 12.6719 84.4891 12.4219C84.2443 12.1719 84.0542 11.8464 83.9187 11.4453C83.7885 11.0443 83.7234 10.5625 83.7234 10V4.54688H85.1687V10.0156C85.1687 10.3958 85.2104 10.7109 85.2937 10.9609C85.3823 11.2057 85.4995 11.401 85.6453 11.5469C85.7964 11.6875 85.963 11.7865 86.1453 11.8438C86.3328 11.901 86.5255 11.9297 86.7234 11.9297C87.338 11.9297 87.825 11.8125 88.1844 11.5781C88.5437 11.3385 88.8016 11.0182 88.9578 10.6172C89.1193 10.2109 89.2 9.76042 89.2 9.26562ZM98.2309 11.3594V1H99.6841V13H98.3559L98.2309 11.3594ZM92.5434 8.86719V8.70312C92.5434 8.05729 92.6216 7.47135 92.7778 6.94531C92.9393 6.41406 93.1658 5.95833 93.4575 5.57812C93.7544 5.19792 94.1059 4.90625 94.5122 4.70312C94.9236 4.49479 95.382 4.39062 95.8872 4.39062C96.4184 4.39062 96.882 4.48438 97.2778 4.67188C97.6789 4.85417 98.0174 5.1224 98.2934 5.47656C98.5747 5.82552 98.796 6.2474 98.9575 6.74219C99.119 7.23698 99.2309 7.79688 99.2934 8.42188V9.14062C99.2361 9.76042 99.1242 10.3177 98.9575 10.8125C98.796 11.3073 98.5747 11.7292 98.2934 12.0781C98.0174 12.4271 97.6789 12.6953 97.2778 12.8828C96.8768 13.0651 96.408 13.1562 95.8716 13.1562C95.3768 13.1562 94.9236 13.0495 94.5122 12.8359C94.1059 12.6224 93.7544 12.3229 93.4575 11.9375C93.1658 11.5521 92.9393 11.099 92.7778 10.5781C92.6216 10.0521 92.5434 9.48177 92.5434 8.86719ZM93.9966 8.70312V8.86719C93.9966 9.28906 94.0382 9.6849 94.1216 10.0547C94.2101 10.4245 94.3455 10.75 94.5278 11.0312C94.7101 11.3125 94.9419 11.5339 95.2231 11.6953C95.5044 11.8516 95.8403 11.9297 96.2309 11.9297C96.7101 11.9297 97.1033 11.8281 97.4106 11.625C97.7231 11.4219 97.9731 11.1536 98.1606 10.8203C98.3481 10.487 98.494 10.125 98.5981 9.73438V7.85156C98.5356 7.5651 98.4445 7.28906 98.3247 7.02344C98.2101 6.7526 98.0591 6.51302 97.8716 6.30469C97.6893 6.09115 97.4627 5.92188 97.1919 5.79688C96.9262 5.67188 96.6111 5.60938 96.2466 5.60938C95.8507 5.60938 95.5096 5.69271 95.2231 5.85938C94.9419 6.02083 94.7101 6.24479 94.5278 6.53125C94.3455 6.8125 94.2101 7.14062 94.1216 7.51562C94.0382 7.88542 93.9966 8.28125 93.9966 8.70312ZM103.824 4.54688V13H102.371V4.54688H103.824ZM102.262 2.30469C102.262 2.07031 102.332 1.8724 102.473 1.71094C102.619 1.54948 102.832 1.46875 103.113 1.46875C103.389 1.46875 103.6 1.54948 103.746 1.71094C103.897 1.8724 103.973 2.07031 103.973 2.30469C103.973 2.52865 103.897 2.72135 103.746 2.88281C103.6 3.03906 103.389 3.11719 103.113 3.11719C102.832 3.11719 102.619 3.03906 102.473 2.88281C102.332 2.72135 102.262 2.52865 102.262 2.30469ZM106.082 8.86719V8.6875C106.082 8.07812 106.17 7.51302 106.348 6.99219C106.525 6.46615 106.78 6.01042 107.113 5.625C107.446 5.23438 107.85 4.93229 108.324 4.71875C108.798 4.5 109.329 4.39062 109.918 4.39062C110.512 4.39062 111.045 4.5 111.519 4.71875C111.999 4.93229 112.405 5.23438 112.738 5.625C113.077 6.01042 113.334 6.46615 113.512 6.99219C113.689 7.51302 113.777 8.07812 113.777 8.6875V8.86719C113.777 9.47656 113.689 10.0417 113.512 10.5625C113.334 11.0833 113.077 11.5391 112.738 11.9297C112.405 12.3151 112.001 12.6172 111.527 12.8359C111.058 13.0495 110.527 13.1562 109.933 13.1562C109.34 13.1562 108.806 13.0495 108.332 12.8359C107.858 12.6172 107.452 12.3151 107.113 11.9297C106.78 11.5391 106.525 11.0833 106.348 10.5625C106.17 10.0417 106.082 9.47656 106.082 8.86719ZM107.527 8.6875V8.86719C107.527 9.28906 107.577 9.6875 107.676 10.0625C107.775 10.4323 107.923 10.7604 108.121 11.0469C108.324 11.3333 108.577 11.5599 108.879 11.7266C109.181 11.888 109.532 11.9688 109.933 11.9688C110.329 11.9688 110.676 11.888 110.973 11.7266C111.275 11.5599 111.525 11.3333 111.723 11.0469C111.92 10.7604 112.069 10.4323 112.168 10.0625C112.272 9.6875 112.324 9.28906 112.324 8.86719V8.6875C112.324 8.27083 112.272 7.8776 112.168 7.50781C112.069 7.13281 111.918 6.80208 111.715 6.51562C111.517 6.22396 111.267 5.99479 110.965 5.82812C110.668 5.66146 110.319 5.57812 109.918 5.57812C109.522 5.57812 109.173 5.66146 108.871 5.82812C108.574 5.99479 108.324 6.22396 108.121 6.51562C107.923 6.80208 107.775 7.13281 107.676 7.50781C107.577 7.8776 107.527 8.27083 107.527 8.6875ZM115.933 12.2344C115.933 11.9896 116.009 11.7839 116.16 11.6172C116.316 11.4453 116.54 11.3594 116.832 11.3594C117.123 11.3594 117.345 11.4453 117.496 11.6172C117.652 11.7839 117.73 11.9896 117.73 12.2344C117.73 12.474 117.652 12.6771 117.496 12.8438C117.345 13.0104 117.123 13.0938 116.832 13.0938C116.54 13.0938 116.316 13.0104 116.16 12.8438C116.009 12.6771 115.933 12.474 115.933 12.2344ZM123.831 11.9688C124.175 11.9688 124.493 11.8984 124.784 11.7578C125.076 11.6172 125.316 11.4245 125.503 11.1797C125.691 10.9297 125.797 10.6458 125.823 10.3281H127.198C127.172 10.8281 127.003 11.2943 126.691 11.7266C126.383 12.1536 125.98 12.5 125.48 12.7656C124.98 13.026 124.43 13.1562 123.831 13.1562C123.196 13.1562 122.641 13.0443 122.167 12.8203C121.698 12.5964 121.308 12.2891 120.995 11.8984C120.688 11.5078 120.456 11.0599 120.3 10.5547C120.149 10.0443 120.073 9.50521 120.073 8.9375V8.60938C120.073 8.04167 120.149 7.50521 120.3 7C120.456 6.48958 120.688 6.03906 120.995 5.64844C121.308 5.25781 121.698 4.95052 122.167 4.72656C122.641 4.5026 123.196 4.39062 123.831 4.39062C124.493 4.39062 125.071 4.52604 125.566 4.79688C126.06 5.0625 126.448 5.42708 126.73 5.89062C127.016 6.34896 127.172 6.86979 127.198 7.45312H125.823C125.797 7.10417 125.698 6.78906 125.527 6.50781C125.36 6.22656 125.131 6.0026 124.839 5.83594C124.553 5.66406 124.217 5.57812 123.831 5.57812C123.389 5.57812 123.016 5.66667 122.714 5.84375C122.417 6.01562 122.18 6.25 122.003 6.54688C121.831 6.83854 121.706 7.16406 121.628 7.52344C121.555 7.8776 121.519 8.23958 121.519 8.60938V8.9375C121.519 9.30729 121.555 9.67188 121.628 10.0312C121.701 10.3906 121.823 10.7161 121.995 11.0078C122.172 11.2995 122.409 11.5339 122.706 11.7109C123.008 11.8828 123.383 11.9688 123.831 11.9688ZM128.761 8.86719V8.6875C128.761 8.07812 128.849 7.51302 129.026 6.99219C129.203 6.46615 129.459 6.01042 129.792 5.625C130.125 5.23438 130.529 4.93229 131.003 4.71875C131.477 4.5 132.008 4.39062 132.597 4.39062C133.19 4.39062 133.724 4.5 134.198 4.71875C134.677 4.93229 135.084 5.23438 135.417 5.625C135.755 6.01042 136.013 6.46615 136.19 6.99219C136.367 7.51302 136.456 8.07812 136.456 8.6875V8.86719C136.456 9.47656 136.367 10.0417 136.19 10.5625C136.013 11.0833 135.755 11.5391 135.417 11.9297C135.084 12.3151 134.68 12.6172 134.206 12.8359C133.737 13.0495 133.206 13.1562 132.612 13.1562C132.018 13.1562 131.485 13.0495 131.011 12.8359C130.537 12.6172 130.13 12.3151 129.792 11.9297C129.459 11.5391 129.203 11.0833 129.026 10.5625C128.849 10.0417 128.761 9.47656 128.761 8.86719ZM130.206 8.6875V8.86719C130.206 9.28906 130.255 9.6875 130.354 10.0625C130.453 10.4323 130.602 10.7604 130.8 11.0469C131.003 11.3333 131.255 11.5599 131.557 11.7266C131.86 11.888 132.211 11.9688 132.612 11.9688C133.008 11.9688 133.354 11.888 133.651 11.7266C133.953 11.5599 134.203 11.3333 134.401 11.0469C134.599 10.7604 134.748 10.4323 134.847 10.0625C134.951 9.6875 135.003 9.28906 135.003 8.86719V8.6875C135.003 8.27083 134.951 7.8776 134.847 7.50781C134.748 7.13281 134.597 6.80208 134.393 6.51562C134.196 6.22396 133.946 5.99479 133.643 5.82812C133.347 5.66146 132.998 5.57812 132.597 5.57812C132.201 5.57812 131.852 5.66146 131.55 5.82812C131.253 5.99479 131.003 6.22396 130.8 6.51562C130.602 6.80208 130.453 7.13281 130.354 7.50781C130.255 7.8776 130.206 8.27083 130.206 8.6875ZM140.026 6.22656V13H138.573V4.54688H139.948L140.026 6.22656ZM139.729 8.45312L139.057 8.42969C139.062 7.85156 139.138 7.31771 139.284 6.82812C139.43 6.33333 139.646 5.90365 139.932 5.53906C140.219 5.17448 140.575 4.89323 141.003 4.69531C141.43 4.49219 141.924 4.39062 142.487 4.39062C142.883 4.39062 143.247 4.44792 143.581 4.5625C143.914 4.67188 144.203 4.84635 144.448 5.08594C144.693 5.32552 144.883 5.63281 145.018 6.00781C145.154 6.38281 145.221 6.83594 145.221 7.36719V13H143.776V7.4375C143.776 6.99479 143.7 6.64062 143.549 6.375C143.404 6.10938 143.195 5.91667 142.924 5.79688C142.654 5.67188 142.336 5.60938 141.971 5.60938C141.544 5.60938 141.187 5.6849 140.901 5.83594C140.614 5.98698 140.385 6.19531 140.213 6.46094C140.042 6.72656 139.917 7.03125 139.838 7.375C139.766 7.71354 139.729 8.07292 139.729 8.45312ZM145.206 7.65625L144.237 7.95312C144.242 7.48958 144.318 7.04427 144.463 6.61719C144.614 6.1901 144.831 5.8099 145.112 5.47656C145.398 5.14323 145.75 4.88021 146.167 4.6875C146.583 4.48958 147.06 4.39062 147.596 4.39062C148.049 4.39062 148.45 4.45052 148.799 4.57031C149.154 4.6901 149.45 4.875 149.69 5.125C149.935 5.36979 150.12 5.6849 150.245 6.07031C150.37 6.45573 150.432 6.91406 150.432 7.44531V13H148.979V7.42969C148.979 6.95573 148.904 6.58854 148.753 6.32812C148.607 6.0625 148.398 5.8776 148.128 5.77344C147.862 5.66406 147.544 5.60938 147.174 5.60938C146.857 5.60938 146.575 5.66406 146.331 5.77344C146.086 5.88281 145.88 6.03385 145.713 6.22656C145.547 6.41406 145.419 6.63021 145.331 6.875C145.247 7.11979 145.206 7.38021 145.206 7.65625Z" fill="#404BBF"/>
</svg>
