<svg width="122" height="27" viewBox="0 0 122 27" fill="none" xmlns="http://www.w3.org/2000/svg">
<g filter="url(#filter0_dd_297046_1532)">
<path d="M9.706 5.756H12.01L13.468 9.986L14.944 5.756H17.23L15.034 11.57L16.654 15.638L20.272 5.72H22.972L17.86 18.5H15.718L13.468 13.136L11.236 18.5H9.094L4 5.72H6.664L10.3 15.638L11.884 11.57L9.706 5.756ZM33.6952 16.322V18.5H24.8212V5.72H33.5332V7.898H27.3052V10.976H32.6872V12.992H27.3052V16.322H33.6952ZM46.4678 15.206C46.4678 15.926 46.2818 16.532 45.9098 17.024C45.5378 17.504 45.0338 17.87 44.3978 18.122C43.7738 18.374 43.0898 18.5 42.3458 18.5H36.1718V5.72H43.0118C43.6118 5.72 44.1278 5.882 44.5598 6.206C45.0038 6.518 45.3398 6.926 45.5678 7.43C45.8078 7.922 45.9278 8.438 45.9278 8.978C45.9278 9.59 45.7718 10.172 45.4598 10.724C45.1478 11.276 44.6918 11.684 44.0918 11.948C44.8238 12.164 45.3998 12.554 45.8198 13.118C46.2518 13.682 46.4678 14.378 46.4678 15.206ZM43.9658 14.738C43.9658 14.414 43.8998 14.126 43.7678 13.874C43.6358 13.61 43.4558 13.406 43.2278 13.262C43.0118 13.106 42.7598 13.028 42.4718 13.028H38.6558V16.394H42.3458C42.6458 16.394 42.9158 16.322 43.1558 16.178C43.4078 16.022 43.6058 15.818 43.7498 15.566C43.8938 15.314 43.9658 15.038 43.9658 14.738ZM38.6558 7.844V11.066H41.9678C42.2438 11.066 42.4958 11 42.7238 10.868C42.9518 10.736 43.1318 10.55 43.2638 10.31C43.4078 10.07 43.4798 9.782 43.4798 9.446C43.4798 9.122 43.4138 8.84 43.2818 8.6C43.1618 8.36 42.9938 8.174 42.7778 8.042C42.5738 7.91 42.3398 7.844 42.0758 7.844H38.6558Z" fill="#4D5AE5"/>
<path d="M56.946 9.068C56.862 8.984 56.706 8.87 56.478 8.726C56.262 8.582 55.992 8.444 55.668 8.312C55.356 8.18 55.014 8.066 54.642 7.97C54.27 7.862 53.892 7.808 53.508 7.808C52.836 7.808 52.326 7.934 51.978 8.186C51.642 8.438 51.474 8.792 51.474 9.248C51.474 9.596 51.582 9.872 51.798 10.076C52.014 10.28 52.338 10.454 52.77 10.598C53.202 10.742 53.742 10.898 54.39 11.066C55.23 11.27 55.956 11.522 56.568 11.822C57.192 12.11 57.666 12.494 57.99 12.974C58.326 13.442 58.494 14.066 58.494 14.846C58.494 15.53 58.368 16.118 58.116 16.61C57.864 17.09 57.516 17.48 57.072 17.78C56.628 18.08 56.124 18.302 55.56 18.446C54.996 18.578 54.396 18.644 53.76 18.644C53.124 18.644 52.488 18.578 51.852 18.446C51.216 18.314 50.604 18.128 50.016 17.888C49.428 17.636 48.888 17.336 48.396 16.988L49.494 14.846C49.602 14.954 49.794 15.098 50.07 15.278C50.346 15.446 50.682 15.62 51.078 15.8C51.474 15.968 51.906 16.112 52.374 16.232C52.842 16.352 53.316 16.412 53.796 16.412C54.468 16.412 54.978 16.298 55.326 16.07C55.674 15.842 55.848 15.518 55.848 15.098C55.848 14.714 55.71 14.414 55.434 14.198C55.158 13.982 54.774 13.796 54.282 13.64C53.79 13.472 53.208 13.292 52.536 13.1C51.732 12.872 51.06 12.62 50.52 12.344C49.98 12.056 49.578 11.696 49.314 11.264C49.05 10.832 48.918 10.292 48.918 9.644C48.918 8.768 49.122 8.036 49.53 7.448C49.95 6.848 50.514 6.398 51.222 6.098C51.93 5.786 52.716 5.63 53.58 5.63C54.18 5.63 54.744 5.696 55.272 5.828C55.812 5.96 56.316 6.134 56.784 6.35C57.252 6.566 57.672 6.8 58.044 7.052L56.946 9.068ZM70.4691 7.898H66.3831V18.5H63.9171V7.898H59.8311V5.72H70.4691V7.898ZM78.0136 18.59C76.9936 18.59 76.1236 18.422 75.4036 18.086C74.6956 17.738 74.1196 17.264 73.6756 16.664C73.2436 16.064 72.9256 15.386 72.7216 14.63C72.5176 13.862 72.4156 13.064 72.4156 12.236V5.72H74.8996V12.236C74.8996 12.764 74.9476 13.28 75.0436 13.784C75.1516 14.276 75.3256 14.72 75.5656 15.116C75.8056 15.512 76.1236 15.824 76.5196 16.052C76.9156 16.28 77.4076 16.394 77.9956 16.394C78.5956 16.394 79.0936 16.28 79.4896 16.052C79.8976 15.812 80.2156 15.494 80.4436 15.098C80.6836 14.702 80.8576 14.258 80.9656 13.766C81.0736 13.262 81.1276 12.752 81.1276 12.236V5.72H83.5936V12.236C83.5936 13.112 83.4856 13.934 83.2696 14.702C83.0656 15.47 82.7356 16.148 82.2796 16.736C81.8356 17.312 81.2596 17.768 80.5516 18.104C79.8436 18.428 78.9976 18.59 78.0136 18.59ZM86.6356 18.5V5.72H91.2796C92.6716 5.72 93.8356 6.008 94.7716 6.584C95.7076 7.148 96.4096 7.916 96.8776 8.888C97.3456 9.848 97.5796 10.916 97.5796 12.092C97.5796 13.388 97.3216 14.516 96.8056 15.476C96.2896 16.436 95.5576 17.18 94.6096 17.708C93.6736 18.236 92.5636 18.5 91.2796 18.5H86.6356ZM95.0776 12.092C95.0776 11.264 94.9276 10.538 94.6276 9.914C94.3276 9.278 93.8956 8.786 93.3316 8.438C92.7676 8.078 92.0836 7.898 91.2796 7.898H89.1196V16.322H91.2796C92.0956 16.322 92.7856 16.142 93.3496 15.782C93.9136 15.41 94.3396 14.906 94.6276 14.27C94.9276 13.622 95.0776 12.896 95.0776 12.092ZM100.06 18.5V5.72H102.544V18.5H100.06ZM111.205 18.59C110.269 18.59 109.417 18.41 108.649 18.05C107.893 17.69 107.239 17.204 106.687 16.592C106.147 15.968 105.727 15.272 105.427 14.504C105.127 13.724 104.977 12.926 104.977 12.11C104.977 11.258 105.133 10.448 105.445 9.68C105.769 8.9 106.207 8.21 106.759 7.61C107.323 6.998 107.983 6.518 108.739 6.17C109.507 5.81 110.347 5.63 111.259 5.63C112.183 5.63 113.023 5.816 113.779 6.188C114.547 6.56 115.201 7.058 115.741 7.682C116.281 8.306 116.701 9.002 117.001 9.77C117.301 10.538 117.451 11.33 117.451 12.146C117.451 12.986 117.295 13.796 116.983 14.576C116.671 15.344 116.233 16.034 115.669 16.646C115.117 17.246 114.457 17.72 113.689 18.068C112.933 18.416 112.105 18.59 111.205 18.59ZM107.497 12.11C107.497 12.662 107.581 13.196 107.749 13.712C107.917 14.228 108.157 14.69 108.469 15.098C108.793 15.494 109.183 15.812 109.639 16.052C110.107 16.28 110.635 16.394 111.223 16.394C111.823 16.394 112.357 16.274 112.825 16.034C113.293 15.782 113.683 15.452 113.995 15.044C114.307 14.624 114.541 14.162 114.697 13.658C114.865 13.142 114.949 12.626 114.949 12.11C114.949 11.558 114.859 11.03 114.679 10.526C114.511 10.01 114.265 9.554 113.941 9.158C113.629 8.75 113.239 8.432 112.771 8.204C112.315 7.964 111.799 7.844 111.223 7.844C110.611 7.844 110.071 7.97 109.603 8.222C109.147 8.462 108.763 8.786 108.451 9.194C108.139 9.602 107.899 10.058 107.731 10.562C107.575 11.066 107.497 11.582 107.497 12.11Z" fill="#F4F4FD"/>
</g>
<defs>
<filter id="filter0_dd_297046_1532" x="0" y="0" width="123" height="32" filterUnits="userSpaceOnUse" color-interpolation-filters="sRGB">
<feFlood flood-opacity="0" result="BackgroundImageFix"/>
<feColorMatrix in="SourceAlpha" type="matrix" values="0 0 0 0 0 0 0 0 0 0 0 0 0 0 0 0 0 0 127 0" result="hardAlpha"/>
<feOffset dy="4"/>
<feGaussianBlur stdDeviation="2"/>
<feComposite in2="hardAlpha" operator="out"/>
<feColorMatrix type="matrix" values="0 0 0 0 0 0 0 0 0 0 0 0 0 0 0 0 0 0 0.25 0"/>
<feBlend mode="normal" in2="BackgroundImageFix" result="effect1_dropShadow_297046_1532"/>
<feColorMatrix in="SourceAlpha" type="matrix" values="0 0 0 0 0 0 0 0 0 0 0 0 0 0 0 0 0 0 127 0" result="hardAlpha"/>
<feOffset dy="4"/>
<feGaussianBlur stdDeviation="2"/>
<feComposite in2="hardAlpha" operator="out"/>
<feColorMatrix type="matrix" values="0 0 0 0 0 0 0 0 0 0 0 0 0 0 0 0 0 0 0.25 0"/>
<feBlend mode="normal" in2="effect1_dropShadow_297046_1532" result="effect2_dropShadow_297046_1532"/>
<feBlend mode="normal" in="SourceGraphic" in2="effect2_dropShadow_297046_1532" result="shape"/>
</filter>
</defs>
</svg>
