<svg width="66" height="52" viewBox="0 0 66 52" fill="none" xmlns="http://www.w3.org/2000/svg">
<path d="M5.47656 12.7578H2.51562V11.2031H5.47656C5.99219 11.2031 6.40885 11.1198 6.72656 10.9531C7.04427 10.7865 7.27604 10.5573 7.42188 10.2656C7.57292 9.96875 7.64844 9.63021 7.64844 9.25C7.64844 8.89062 7.57292 8.55469 7.42188 8.24219C7.27604 7.92448 7.04427 7.66927 6.72656 7.47656C6.40885 7.28385 5.99219 7.1875 5.47656 7.1875H3.11719V17H1.15625V5.625H5.47656C6.35677 5.625 7.10417 5.78125 7.71875 6.09375C8.33854 6.40104 8.8099 6.82812 9.13281 7.375C9.45573 7.91667 9.61719 8.53646 9.61719 9.23438C9.61719 9.96875 9.45573 10.599 9.13281 11.125C8.8099 11.651 8.33854 12.0547 7.71875 12.3359C7.10417 12.6172 6.35677 12.7578 5.47656 12.7578ZM11.0387 12.8672V12.6875C11.0387 12.0781 11.1273 11.513 11.3044 10.9922C11.4815 10.4661 11.7367 10.0104 12.07 9.625C12.4085 9.23438 12.82 8.93229 13.3044 8.71875C13.794 8.5 14.346 8.39062 14.9606 8.39062C15.5804 8.39062 16.1325 8.5 16.6169 8.71875C17.1065 8.93229 17.5205 9.23438 17.8591 9.625C18.1976 10.0104 18.4554 10.4661 18.6325 10.9922C18.8096 11.513 18.8981 12.0781 18.8981 12.6875V12.8672C18.8981 13.4766 18.8096 14.0417 18.6325 14.5625C18.4554 15.0833 18.1976 15.5391 17.8591 15.9297C17.5205 16.3151 17.1091 16.6172 16.6247 16.8359C16.1403 17.0495 15.5908 17.1562 14.9762 17.1562C14.3565 17.1562 13.8018 17.0495 13.3122 16.8359C12.8278 16.6172 12.4164 16.3151 12.0778 15.9297C11.7393 15.5391 11.4815 15.0833 11.3044 14.5625C11.1273 14.0417 11.0387 13.4766 11.0387 12.8672ZM12.9216 12.6875V12.8672C12.9216 13.2474 12.9606 13.6068 13.0387 13.9453C13.1169 14.2839 13.2393 14.5807 13.4059 14.8359C13.5726 15.0911 13.7861 15.2917 14.0466 15.4375C14.307 15.5833 14.6169 15.6562 14.9762 15.6562C15.3252 15.6562 15.6273 15.5833 15.8825 15.4375C16.1429 15.2917 16.3565 15.0911 16.5231 14.8359C16.6898 14.5807 16.8122 14.2839 16.8903 13.9453C16.9736 13.6068 17.0153 13.2474 17.0153 12.8672V12.6875C17.0153 12.3125 16.9736 11.9583 16.8903 11.625C16.8122 11.2865 16.6872 10.987 16.5153 10.7266C16.3486 10.4661 16.1351 10.263 15.8747 10.1172C15.6195 9.96615 15.3148 9.89062 14.9606 9.89062C14.6065 9.89062 14.2992 9.96615 14.0387 10.1172C13.7835 10.263 13.5726 10.4661 13.4059 10.7266C13.2393 10.987 13.1169 11.2865 13.0387 11.625C12.9606 11.9583 12.9216 12.3125 12.9216 12.6875ZM22.6869 10.1562V17H20.8041V8.54688H22.6009L22.6869 10.1562ZM25.2728 8.49219L25.2572 10.2422C25.1426 10.2214 25.0176 10.2057 24.8822 10.1953C24.752 10.1849 24.6218 10.1797 24.4916 10.1797C24.1686 10.1797 23.8848 10.2266 23.64 10.3203C23.3952 10.4089 23.1895 10.5391 23.0228 10.7109C22.8614 10.8776 22.7364 11.0807 22.6478 11.3203C22.5593 11.5599 22.5072 11.8281 22.4916 12.125L22.0619 12.1562C22.0619 11.625 22.114 11.1328 22.2181 10.6797C22.3223 10.2266 22.4785 9.82812 22.6869 9.48438C22.9004 9.14062 23.166 8.8724 23.4837 8.67969C23.8067 8.48698 24.1791 8.39062 24.6009 8.39062C24.7155 8.39062 24.8379 8.40104 24.9681 8.42188C25.1035 8.44271 25.2051 8.46615 25.2728 8.49219ZM31.0381 8.54688V9.92188H26.2725V8.54688H31.0381ZM27.6475 6.47656H29.5303V14.6641C29.5303 14.9245 29.5668 15.125 29.6397 15.2656C29.7178 15.401 29.8246 15.4922 29.96 15.5391C30.0954 15.5859 30.2543 15.6094 30.4366 15.6094C30.5668 15.6094 30.6918 15.6016 30.8116 15.5859C30.9314 15.5703 31.0277 15.5547 31.1006 15.5391L31.1084 16.9766C30.9522 17.0234 30.7699 17.0651 30.5616 17.1016C30.3584 17.138 30.1241 17.1562 29.8584 17.1562C29.4261 17.1562 29.0433 17.0807 28.71 16.9297C28.3767 16.7734 28.1162 16.5208 27.9287 16.1719C27.7412 15.8229 27.6475 15.3594 27.6475 14.7812V6.47656ZM35.3581 17H33.4753V7.73438C33.4753 7.10417 33.5925 6.57552 33.8269 6.14844C34.0665 5.71615 34.4076 5.39062 34.8503 5.17188C35.293 4.94792 35.8165 4.83594 36.4206 4.83594C36.6081 4.83594 36.793 4.84896 36.9753 4.875C37.1576 4.89583 37.3347 4.92969 37.5066 4.97656L37.4597 6.42969C37.3555 6.40365 37.2409 6.38542 37.1159 6.375C36.9961 6.36458 36.8659 6.35938 36.7253 6.35938C36.4389 6.35938 36.1915 6.41406 35.9831 6.52344C35.78 6.6276 35.6238 6.78125 35.5144 6.98438C35.4102 7.1875 35.3581 7.4375 35.3581 7.73438V17ZM37.1003 8.54688V9.92188H32.1784V8.54688H37.1003ZM38.4281 12.8672V12.6875C38.4281 12.0781 38.5167 11.513 38.6937 10.9922C38.8708 10.4661 39.126 10.0104 39.4594 9.625C39.7979 9.23438 40.2094 8.93229 40.6937 8.71875C41.1833 8.5 41.7354 8.39062 42.35 8.39062C42.9698 8.39062 43.5219 8.5 44.0062 8.71875C44.4958 8.93229 44.9099 9.23438 45.2484 9.625C45.587 10.0104 45.8448 10.4661 46.0219 10.9922C46.199 11.513 46.2875 12.0781 46.2875 12.6875V12.8672C46.2875 13.4766 46.199 14.0417 46.0219 14.5625C45.8448 15.0833 45.587 15.5391 45.2484 15.9297C44.9099 16.3151 44.4984 16.6172 44.0141 16.8359C43.5297 17.0495 42.9802 17.1562 42.3656 17.1562C41.7458 17.1562 41.1911 17.0495 40.7016 16.8359C40.2172 16.6172 39.8057 16.3151 39.4672 15.9297C39.1286 15.5391 38.8708 15.0833 38.6937 14.5625C38.5167 14.0417 38.4281 13.4766 38.4281 12.8672ZM40.3109 12.6875V12.8672C40.3109 13.2474 40.35 13.6068 40.4281 13.9453C40.5062 14.2839 40.6286 14.5807 40.7953 14.8359C40.962 15.0911 41.1755 15.2917 41.4359 15.4375C41.6964 15.5833 42.0062 15.6562 42.3656 15.6562C42.7146 15.6562 43.0167 15.5833 43.2719 15.4375C43.5323 15.2917 43.7458 15.0911 43.9125 14.8359C44.0792 14.5807 44.2016 14.2839 44.2797 13.9453C44.363 13.6068 44.4047 13.2474 44.4047 12.8672V12.6875C44.4047 12.3125 44.363 11.9583 44.2797 11.625C44.2016 11.2865 44.0766 10.987 43.9047 10.7266C43.738 10.4661 43.5245 10.263 43.2641 10.1172C43.0089 9.96615 42.7042 9.89062 42.35 9.89062C41.9958 9.89062 41.6885 9.96615 41.4281 10.1172C41.1729 10.263 40.962 10.4661 40.7953 10.7266C40.6286 10.987 40.5062 11.2865 40.4281 11.625C40.35 11.9583 40.3109 12.3125 40.3109 12.6875ZM50.2012 5V17H48.3106V5H50.2012ZM54.5994 8.54688V17H52.7088V8.54688H54.5994ZM52.5838 6.32812C52.5838 6.04167 52.6775 5.80469 52.865 5.61719C53.0577 5.42448 53.3233 5.32812 53.6619 5.32812C53.9952 5.32812 54.2582 5.42448 54.4509 5.61719C54.6436 5.80469 54.74 6.04167 54.74 6.32812C54.74 6.60938 54.6436 6.84375 54.4509 7.03125C54.2582 7.21875 53.9952 7.3125 53.6619 7.3125C53.3233 7.3125 53.0577 7.21875 52.865 7.03125C52.6775 6.84375 52.5838 6.60938 52.5838 6.32812ZM56.6225 12.8672V12.6875C56.6225 12.0781 56.711 11.513 56.8881 10.9922C57.0652 10.4661 57.3204 10.0104 57.6538 9.625C57.9923 9.23438 58.4038 8.93229 58.8881 8.71875C59.3777 8.5 59.9298 8.39062 60.5444 8.39062C61.1642 8.39062 61.7163 8.5 62.2006 8.71875C62.6902 8.93229 63.1043 9.23438 63.4428 9.625C63.7814 10.0104 64.0392 10.4661 64.2163 10.9922C64.3933 11.513 64.4819 12.0781 64.4819 12.6875V12.8672C64.4819 13.4766 64.3933 14.0417 64.2163 14.5625C64.0392 15.0833 63.7814 15.5391 63.4428 15.9297C63.1043 16.3151 62.6928 16.6172 62.2084 16.8359C61.7241 17.0495 61.1746 17.1562 60.56 17.1562C59.9402 17.1562 59.3855 17.0495 58.8959 16.8359C58.4116 16.6172 58.0001 16.3151 57.6616 15.9297C57.323 15.5391 57.0652 15.0833 56.8881 14.5625C56.711 14.0417 56.6225 13.4766 56.6225 12.8672ZM58.5053 12.6875V12.8672C58.5053 13.2474 58.5444 13.6068 58.6225 13.9453C58.7006 14.2839 58.823 14.5807 58.9897 14.8359C59.1564 15.0911 59.3699 15.2917 59.6303 15.4375C59.8907 15.5833 60.2006 15.6562 60.56 15.6562C60.909 15.6562 61.211 15.5833 61.4663 15.4375C61.7267 15.2917 61.9402 15.0911 62.1069 14.8359C62.2735 14.5807 62.3959 14.2839 62.4741 13.9453C62.5574 13.6068 62.5991 13.2474 62.5991 12.8672V12.6875C62.5991 12.3125 62.5574 11.9583 62.4741 11.625C62.3959 11.2865 62.2709 10.987 62.0991 10.7266C61.9324 10.4661 61.7189 10.263 61.4584 10.1172C61.2032 9.96615 60.8985 9.89062 60.5444 9.89062C60.1902 9.89062 59.8829 9.96615 59.6225 10.1172C59.3673 10.263 59.1564 10.4661 58.9897 10.7266C58.823 10.987 58.7006 11.2865 58.6225 11.625C58.5444 11.9583 58.5053 12.3125 58.5053 12.6875Z" fill="#404BBF"/>
<rect y="44" width="66" height="4" rx="2" fill="#404BBF"/>
</svg>
