<svg width="67" height="52" viewBox="0 0 67 52" fill="none" xmlns="http://www.w3.org/2000/svg">
<path d="M7.875 13.2969H9.82812C9.76562 14.0417 9.55729 14.7057 9.20312 15.2891C8.84896 15.8672 8.35156 16.3229 7.71094 16.6562C7.07031 16.9896 6.29167 17.1562 5.375 17.1562C4.67188 17.1562 4.03906 17.0312 3.47656 16.7812C2.91406 16.526 2.43229 16.1667 2.03125 15.7031C1.63021 15.2344 1.32292 14.6693 1.10938 14.0078C0.901042 13.3464 0.796875 12.6068 0.796875 11.7891V10.8438C0.796875 10.026 0.903646 9.28646 1.11719 8.625C1.33594 7.96354 1.64844 7.39844 2.05469 6.92969C2.46094 6.45573 2.94792 6.09375 3.51562 5.84375C4.08854 5.59375 4.73177 5.46875 5.44531 5.46875C6.35156 5.46875 7.11719 5.63542 7.74219 5.96875C8.36719 6.30208 8.85156 6.76302 9.19531 7.35156C9.54427 7.9401 9.75781 8.61458 9.83594 9.375H7.88281C7.83073 8.88542 7.71615 8.46615 7.53906 8.11719C7.36719 7.76823 7.11198 7.5026 6.77344 7.32031C6.4349 7.13281 5.99219 7.03906 5.44531 7.03906C4.9974 7.03906 4.60677 7.1224 4.27344 7.28906C3.9401 7.45573 3.66146 7.70052 3.4375 8.02344C3.21354 8.34635 3.04427 8.74479 2.92969 9.21875C2.82031 9.6875 2.76562 10.224 2.76562 10.8281V11.7891C2.76562 12.362 2.8151 12.8828 2.91406 13.3516C3.01823 13.8151 3.17448 14.2135 3.38281 14.5469C3.59635 14.8802 3.86719 15.138 4.19531 15.3203C4.52344 15.5026 4.91667 15.5938 5.375 15.5938C5.93229 15.5938 6.38281 15.5052 6.72656 15.3281C7.07552 15.151 7.33854 14.8932 7.51562 14.5547C7.69792 14.2109 7.81771 13.7917 7.875 13.2969ZM11.3825 12.8672V12.6875C11.3825 12.0781 11.471 11.513 11.6481 10.9922C11.8252 10.4661 12.0804 10.0104 12.4137 9.625C12.7523 9.23438 13.1637 8.93229 13.6481 8.71875C14.1377 8.5 14.6898 8.39062 15.3044 8.39062C15.9242 8.39062 16.4762 8.5 16.9606 8.71875C17.4502 8.93229 17.8643 9.23438 18.2028 9.625C18.5414 10.0104 18.7992 10.4661 18.9762 10.9922C19.1533 11.513 19.2419 12.0781 19.2419 12.6875V12.8672C19.2419 13.4766 19.1533 14.0417 18.9762 14.5625C18.7992 15.0833 18.5414 15.5391 18.2028 15.9297C17.8643 16.3151 17.4528 16.6172 16.9684 16.8359C16.4841 17.0495 15.9346 17.1562 15.32 17.1562C14.7002 17.1562 14.1455 17.0495 13.6559 16.8359C13.1716 16.6172 12.7601 16.3151 12.4216 15.9297C12.083 15.5391 11.8252 15.0833 11.6481 14.5625C11.471 14.0417 11.3825 13.4766 11.3825 12.8672ZM13.2653 12.6875V12.8672C13.2653 13.2474 13.3044 13.6068 13.3825 13.9453C13.4606 14.2839 13.583 14.5807 13.7497 14.8359C13.9164 15.0911 14.1299 15.2917 14.3903 15.4375C14.6507 15.5833 14.9606 15.6562 15.32 15.6562C15.669 15.6562 15.971 15.5833 16.2262 15.4375C16.4867 15.2917 16.7002 15.0911 16.8669 14.8359C17.0335 14.5807 17.1559 14.2839 17.2341 13.9453C17.3174 13.6068 17.3591 13.2474 17.3591 12.8672V12.6875C17.3591 12.3125 17.3174 11.9583 17.2341 11.625C17.1559 11.2865 17.0309 10.987 16.8591 10.7266C16.6924 10.4661 16.4789 10.263 16.2184 10.1172C15.9632 9.96615 15.6585 9.89062 15.3044 9.89062C14.9502 9.89062 14.6429 9.96615 14.3825 10.1172C14.1273 10.263 13.9164 10.4661 13.7497 10.7266C13.583 10.987 13.4606 11.2865 13.3825 11.625C13.3044 11.9583 13.2653 12.3125 13.2653 12.6875ZM23.0072 10.3516V17H21.1244V8.54688H22.8978L23.0072 10.3516ZM22.6712 12.4609L22.0619 12.4531C22.0671 11.8542 22.1504 11.3047 22.3119 10.8047C22.4785 10.3047 22.7077 9.875 22.9994 9.51562C23.2962 9.15625 23.6504 8.88021 24.0619 8.6875C24.4733 8.48958 24.9317 8.39062 25.4369 8.39062C25.8431 8.39062 26.2103 8.44792 26.5384 8.5625C26.8718 8.67188 27.1556 8.85156 27.39 9.10156C27.6296 9.35156 27.8119 9.67708 27.9369 10.0781C28.0619 10.474 28.1244 10.9609 28.1244 11.5391V17H26.2337V11.5312C26.2337 11.125 26.1739 10.8047 26.0541 10.5703C25.9395 10.3307 25.7702 10.1615 25.5462 10.0625C25.3275 9.95833 25.0541 9.90625 24.7259 9.90625C24.403 9.90625 24.114 9.97396 23.8587 10.1094C23.6035 10.2448 23.3874 10.4297 23.2103 10.6641C23.0384 10.8984 22.9056 11.1693 22.8119 11.4766C22.7181 11.7839 22.6712 12.112 22.6712 12.4609ZM34.2412 8.54688V9.92188H29.4756V8.54688H34.2412ZM30.8506 6.47656H32.7334V14.6641C32.7334 14.9245 32.7699 15.125 32.8428 15.2656C32.9209 15.401 33.0277 15.4922 33.1631 15.5391C33.2985 15.5859 33.4574 15.6094 33.6397 15.6094C33.7699 15.6094 33.8949 15.6016 34.0147 15.5859C34.1345 15.5703 34.2308 15.5547 34.3037 15.5391L34.3116 16.9766C34.1553 17.0234 33.973 17.0651 33.7647 17.1016C33.5616 17.138 33.3272 17.1562 33.0616 17.1562C32.6293 17.1562 32.2465 17.0807 31.9131 16.9297C31.5798 16.7734 31.3194 16.5208 31.1319 16.1719C30.9444 15.8229 30.8506 15.3594 30.8506 14.7812V6.47656ZM40.78 15.3047V11.2734C40.78 10.9714 40.7253 10.7109 40.6159 10.4922C40.5066 10.2734 40.3399 10.1042 40.1159 9.98438C39.8972 9.86458 39.6211 9.80469 39.2878 9.80469C38.9805 9.80469 38.7149 9.85677 38.4909 9.96094C38.267 10.0651 38.0925 10.2057 37.9675 10.3828C37.8425 10.5599 37.78 10.7604 37.78 10.9844H35.905C35.905 10.651 35.9857 10.3281 36.1472 10.0156C36.3086 9.70312 36.543 9.42448 36.8503 9.17969C37.1576 8.9349 37.5248 8.74219 37.9519 8.60156C38.379 8.46094 38.8581 8.39062 39.3894 8.39062C40.0248 8.39062 40.5873 8.4974 41.0769 8.71094C41.5717 8.92448 41.9597 9.2474 42.2409 9.67969C42.5274 10.1068 42.6706 10.6432 42.6706 11.2891V15.0469C42.6706 15.4323 42.6967 15.7786 42.7487 16.0859C42.806 16.388 42.8868 16.651 42.9909 16.875V17H41.0612C40.9727 16.7969 40.9024 16.5391 40.8503 16.2266C40.8034 15.9089 40.78 15.6016 40.78 15.3047ZM41.0534 11.8594L41.0691 13.0234H39.7175C39.3685 13.0234 39.0612 13.0573 38.7956 13.125C38.53 13.1875 38.3086 13.2812 38.1316 13.4062C37.9545 13.5312 37.8217 13.6823 37.7331 13.8594C37.6446 14.0365 37.6003 14.237 37.6003 14.4609C37.6003 14.6849 37.6524 14.8906 37.7566 15.0781C37.8607 15.2604 38.0118 15.4036 38.2097 15.5078C38.4128 15.612 38.6576 15.6641 38.9441 15.6641C39.3295 15.6641 39.6654 15.5859 39.9519 15.4297C40.2435 15.2682 40.4727 15.0729 40.6394 14.8438C40.806 14.6094 40.8946 14.388 40.905 14.1797L41.5144 15.0156C41.4519 15.2292 41.3451 15.4583 41.1941 15.7031C41.043 15.9479 40.8451 16.1823 40.6003 16.4062C40.3607 16.625 40.0717 16.8047 39.7331 16.9453C39.3998 17.0859 39.0144 17.1562 38.5769 17.1562C38.0248 17.1562 37.5326 17.0469 37.1003 16.8281C36.668 16.6042 36.3295 16.3047 36.0847 15.9297C35.8399 15.5495 35.7175 15.1198 35.7175 14.6406C35.7175 14.1927 35.8008 13.7969 35.9675 13.4531C36.1394 13.1042 36.3894 12.8125 36.7175 12.5781C37.0508 12.3438 37.4571 12.1667 37.9362 12.0469C38.4154 11.9219 38.9623 11.8594 39.5769 11.8594H41.0534ZM48.4125 15.6562C48.7198 15.6562 48.9958 15.5964 49.2406 15.4766C49.4906 15.3516 49.6911 15.1797 49.8422 14.9609C49.9984 14.7422 50.0844 14.4896 50.1 14.2031H51.8734C51.863 14.75 51.7016 15.2474 51.3891 15.6953C51.0766 16.1432 50.6625 16.5 50.1469 16.7656C49.6312 17.026 49.0609 17.1562 48.4359 17.1562C47.7901 17.1562 47.2276 17.0469 46.7484 16.8281C46.2693 16.6042 45.8708 16.2969 45.5531 15.9062C45.2354 15.5156 44.9958 15.0651 44.8344 14.5547C44.6781 14.0443 44.6 13.4974 44.6 12.9141V12.6406C44.6 12.0573 44.6781 11.5104 44.8344 11C44.9958 10.4844 45.2354 10.0312 45.5531 9.64062C45.8708 9.25 46.2693 8.94531 46.7484 8.72656C47.2276 8.5026 47.7875 8.39062 48.4281 8.39062C49.1052 8.39062 49.699 8.52604 50.2094 8.79688C50.7198 9.0625 51.1208 9.4349 51.4125 9.91406C51.7094 10.388 51.863 10.9401 51.8734 11.5703H50.1C50.0844 11.2578 50.0062 10.9766 49.8656 10.7266C49.7302 10.4714 49.5375 10.2682 49.2875 10.1172C49.0427 9.96615 48.7484 9.89062 48.4047 9.89062C48.0245 9.89062 47.7094 9.96875 47.4594 10.125C47.2094 10.276 47.0141 10.4844 46.8734 10.75C46.7328 11.0104 46.6312 11.3047 46.5687 11.6328C46.5115 11.9557 46.4828 12.2917 46.4828 12.6406V12.9141C46.4828 13.263 46.5115 13.6016 46.5687 13.9297C46.626 14.2578 46.725 14.5521 46.8656 14.8125C47.0115 15.0677 47.2094 15.2734 47.4594 15.4297C47.7094 15.5807 48.0271 15.6562 48.4125 15.6562ZM57.5137 8.54688V9.92188H52.7481V8.54688H57.5137ZM54.1231 6.47656H56.0059V14.6641C56.0059 14.9245 56.0424 15.125 56.1153 15.2656C56.1934 15.401 56.3002 15.4922 56.4356 15.5391C56.571 15.5859 56.7299 15.6094 56.9122 15.6094C57.0424 15.6094 57.1674 15.6016 57.2872 15.5859C57.407 15.5703 57.5033 15.5547 57.5762 15.5391L57.5841 16.9766C57.4278 17.0234 57.2455 17.0651 57.0372 17.1016C56.8341 17.138 56.5997 17.1562 56.3341 17.1562C55.9018 17.1562 55.519 17.0807 55.1856 16.9297C54.8523 16.7734 54.5919 16.5208 54.4044 16.1719C54.2169 15.8229 54.1231 15.3594 54.1231 14.7812V6.47656ZM64.0291 14.7109C64.0291 14.5234 63.9822 14.3542 63.8884 14.2031C63.7947 14.0469 63.615 13.9062 63.3494 13.7812C63.089 13.6562 62.7035 13.5417 62.1931 13.4375C61.7452 13.3385 61.3338 13.2214 60.9588 13.0859C60.589 12.9453 60.2713 12.776 60.0056 12.5781C59.74 12.3802 59.5343 12.1458 59.3884 11.875C59.2426 11.6042 59.1697 11.2917 59.1697 10.9375C59.1697 10.5938 59.2452 10.2682 59.3963 9.96094C59.5473 9.65365 59.7634 9.38281 60.0447 9.14844C60.3259 8.91406 60.6671 8.72917 61.0681 8.59375C61.4744 8.45833 61.9275 8.39062 62.4275 8.39062C63.1358 8.39062 63.7426 8.51042 64.2478 8.75C64.7582 8.98438 65.1489 9.30469 65.4197 9.71094C65.6905 10.112 65.8259 10.5651 65.8259 11.0703H63.9431C63.9431 10.8464 63.8858 10.638 63.7713 10.4453C63.6619 10.2474 63.4952 10.0885 63.2713 9.96875C63.0473 9.84375 62.766 9.78125 62.4275 9.78125C62.1046 9.78125 61.8364 9.83333 61.6228 9.9375C61.4145 10.0365 61.2582 10.1667 61.1541 10.3281C61.0551 10.4896 61.0056 10.6667 61.0056 10.8594C61.0056 11 61.0317 11.1276 61.0838 11.2422C61.141 11.3516 61.2348 11.4531 61.365 11.5469C61.4952 11.6354 61.6723 11.7188 61.8963 11.7969C62.1254 11.875 62.4119 11.9505 62.7556 12.0234C63.4015 12.1589 63.9561 12.3333 64.4197 12.5469C64.8884 12.7552 65.2478 13.026 65.4978 13.3594C65.7478 13.6875 65.8728 14.1042 65.8728 14.6094C65.8728 14.9844 65.7921 15.3281 65.6306 15.6406C65.4744 15.9479 65.2452 16.2161 64.9431 16.4453C64.641 16.6693 64.2791 16.8438 63.8572 16.9688C63.4405 17.0938 62.9718 17.1562 62.4509 17.1562C61.6853 17.1562 61.0369 17.0208 60.5056 16.75C59.9744 16.474 59.5707 16.1224 59.2947 15.6953C59.0239 15.263 58.8884 14.8151 58.8884 14.3516H60.7088C60.7296 14.7005 60.8259 14.9792 60.9978 15.1875C61.1749 15.3906 61.3936 15.5391 61.6541 15.6328C61.9197 15.7214 62.1931 15.7656 62.4744 15.7656C62.8129 15.7656 63.0968 15.7214 63.3259 15.6328C63.5551 15.5391 63.7296 15.4141 63.8494 15.2578C63.9692 15.0964 64.0291 14.9141 64.0291 14.7109Z" fill="#404BBF"/>
<rect y="44" width="67" height="4" rx="2" fill="#404BBF"/>
</svg>
