<svg width="48" height="52" viewBox="0 0 48 52" fill="none" xmlns="http://www.w3.org/2000/svg">
<path d="M7.14062 14.0703C7.14062 13.8359 7.10417 13.6276 7.03125 13.4453C6.96354 13.263 6.84115 13.0964 6.66406 12.9453C6.48698 12.7943 6.23698 12.6484 5.91406 12.5078C5.59635 12.362 5.1901 12.2135 4.69531 12.0625C4.15365 11.8958 3.65365 11.7109 3.19531 11.5078C2.74219 11.2995 2.34635 11.0599 2.00781 10.7891C1.66927 10.513 1.40625 10.1979 1.21875 9.84375C1.03125 9.48438 0.9375 9.07031 0.9375 8.60156C0.9375 8.13802 1.03385 7.71615 1.22656 7.33594C1.42448 6.95573 1.70312 6.6276 2.0625 6.35156C2.42708 6.07031 2.85677 5.85417 3.35156 5.70312C3.84635 5.54688 4.39323 5.46875 4.99219 5.46875C5.83594 5.46875 6.5625 5.625 7.17188 5.9375C7.78646 6.25 8.25781 6.66927 8.58594 7.19531C8.91927 7.72135 9.08594 8.30208 9.08594 8.9375H7.14062C7.14062 8.5625 7.0599 8.23177 6.89844 7.94531C6.74219 7.65365 6.5026 7.42448 6.17969 7.25781C5.86198 7.09115 5.45833 7.00781 4.96875 7.00781C4.50521 7.00781 4.11979 7.07812 3.8125 7.21875C3.50521 7.35938 3.27604 7.54948 3.125 7.78906C2.97396 8.02865 2.89844 8.29948 2.89844 8.60156C2.89844 8.8151 2.94792 9.01042 3.04688 9.1875C3.14583 9.35938 3.29688 9.52083 3.5 9.67188C3.70312 9.81771 3.95833 9.95573 4.26562 10.0859C4.57292 10.2161 4.9349 10.3411 5.35156 10.4609C5.98177 10.6484 6.53125 10.8568 7 11.0859C7.46875 11.3099 7.85938 11.5651 8.17188 11.8516C8.48438 12.138 8.71875 12.4635 8.875 12.8281C9.03125 13.1875 9.10938 13.5964 9.10938 14.0547C9.10938 14.5339 9.01302 14.9661 8.82031 15.3516C8.6276 15.7318 8.35156 16.0573 7.99219 16.3281C7.63802 16.5938 7.21094 16.7995 6.71094 16.9453C6.21615 17.0859 5.66406 17.1562 5.05469 17.1562C4.50781 17.1562 3.96875 17.0833 3.4375 16.9375C2.91146 16.7917 2.43229 16.5703 2 16.2734C1.56771 15.9714 1.22396 15.5964 0.96875 15.1484C0.713542 14.6953 0.585938 14.1667 0.585938 13.5625H2.54688C2.54688 13.9323 2.60938 14.2474 2.73438 14.5078C2.86458 14.7682 3.04427 14.9818 3.27344 15.1484C3.5026 15.3099 3.76823 15.4297 4.07031 15.5078C4.3776 15.5859 4.70573 15.625 5.05469 15.625C5.51302 15.625 5.89583 15.5599 6.20312 15.4297C6.51562 15.2995 6.75 15.1172 6.90625 14.8828C7.0625 14.6484 7.14062 14.3776 7.14062 14.0703ZM14.8512 8.54688V9.92188H10.0856V8.54688H14.8512ZM11.4606 6.47656H13.3434V14.6641C13.3434 14.9245 13.3799 15.125 13.4528 15.2656C13.5309 15.401 13.6377 15.4922 13.7731 15.5391C13.9085 15.5859 14.0674 15.6094 14.2497 15.6094C14.3799 15.6094 14.5049 15.6016 14.6247 15.5859C14.7445 15.5703 14.8408 15.5547 14.9137 15.5391L14.9216 16.9766C14.7653 17.0234 14.583 17.0651 14.3747 17.1016C14.1716 17.138 13.9372 17.1562 13.6716 17.1562C13.2393 17.1562 12.8565 17.0807 12.5231 16.9297C12.1898 16.7734 11.9294 16.5208 11.7419 16.1719C11.5544 15.8229 11.4606 15.3594 11.4606 14.7812V6.47656ZM21.7103 15.0078V8.54688H23.6009V17H21.8197L21.7103 15.0078ZM21.9759 13.25L22.6088 13.2344C22.6088 13.8021 22.5463 14.3255 22.4213 14.8047C22.2963 15.2786 22.1035 15.6927 21.8431 16.0469C21.5827 16.3958 21.2494 16.6693 20.8431 16.8672C20.4369 17.0599 19.9499 17.1562 19.3822 17.1562C18.9707 17.1562 18.5931 17.0964 18.2494 16.9766C17.9056 16.8568 17.6088 16.6719 17.3588 16.4219C17.114 16.1719 16.9239 15.8464 16.7884 15.4453C16.653 15.0443 16.5853 14.5651 16.5853 14.0078V8.54688H18.4681V14.0234C18.4681 14.3307 18.5046 14.5885 18.5775 14.7969C18.6504 15 18.7494 15.1641 18.8744 15.2891C18.9994 15.4141 19.1452 15.5026 19.3119 15.5547C19.4785 15.6068 19.6556 15.6328 19.8431 15.6328C20.3796 15.6328 20.8015 15.5286 21.1088 15.3203C21.4213 15.1068 21.6426 14.8203 21.7728 14.4609C21.9082 14.1016 21.9759 13.6979 21.9759 13.25ZM31.0069 15.25V5H32.8975V17H31.1866L31.0069 15.25ZM25.5069 12.8672V12.7031C25.5069 12.0625 25.5824 11.4792 25.7334 10.9531C25.8845 10.4219 26.1032 9.96615 26.3897 9.58594C26.6761 9.20052 27.0251 8.90625 27.4366 8.70312C27.848 8.49479 28.3116 8.39062 28.8272 8.39062C29.3376 8.39062 29.7855 8.48958 30.1709 8.6875C30.5564 8.88542 30.8845 9.16927 31.1553 9.53906C31.4261 9.90365 31.6423 10.3411 31.8037 10.8516C31.9652 11.3568 32.0798 11.9193 32.1475 12.5391V13.0625C32.0798 13.6667 31.9652 14.2188 31.8037 14.7188C31.6423 15.2188 31.4261 15.651 31.1553 16.0156C30.8845 16.3802 30.5537 16.6615 30.1631 16.8594C29.7777 17.0573 29.3272 17.1562 28.8116 17.1562C28.3011 17.1562 27.8402 17.0495 27.4287 16.8359C27.0225 16.6224 26.6761 16.3229 26.3897 15.9375C26.1032 15.5521 25.8845 15.099 25.7334 14.5781C25.5824 14.0521 25.5069 13.4818 25.5069 12.8672ZM27.3897 12.7031V12.8672C27.3897 13.2526 27.4235 13.612 27.4912 13.9453C27.5642 14.2786 27.6761 14.5729 27.8272 14.8281C27.9782 15.0781 28.1735 15.276 28.4131 15.4219C28.6579 15.5625 28.9496 15.6328 29.2881 15.6328C29.7152 15.6328 30.0668 15.5391 30.3428 15.3516C30.6189 15.1641 30.835 14.9115 30.9912 14.5938C31.1527 14.2708 31.2621 13.9115 31.3194 13.5156V12.1016C31.2881 11.7943 31.223 11.5078 31.1241 11.2422C31.0303 10.9766 30.9027 10.7448 30.7412 10.5469C30.5798 10.3438 30.3793 10.1875 30.1397 10.0781C29.9053 9.96354 29.6267 9.90625 29.3037 9.90625C28.96 9.90625 28.6683 9.97917 28.4287 10.125C28.1892 10.2708 27.9912 10.4714 27.835 10.7266C27.684 10.9818 27.572 11.2786 27.4991 11.6172C27.4261 11.9557 27.3897 12.3177 27.3897 12.7031ZM37.2019 8.54688V17H35.3112V8.54688H37.2019ZM35.1862 6.32812C35.1862 6.04167 35.28 5.80469 35.4675 5.61719C35.6602 5.42448 35.9258 5.32812 36.2644 5.32812C36.5977 5.32812 36.8607 5.42448 37.0534 5.61719C37.2461 5.80469 37.3425 6.04167 37.3425 6.32812C37.3425 6.60938 37.2461 6.84375 37.0534 7.03125C36.8607 7.21875 36.5977 7.3125 36.2644 7.3125C35.9258 7.3125 35.6602 7.21875 35.4675 7.03125C35.28 6.84375 35.1862 6.60938 35.1862 6.32812ZM39.225 12.8672V12.6875C39.225 12.0781 39.3135 11.513 39.4906 10.9922C39.6677 10.4661 39.9229 10.0104 40.2562 9.625C40.5948 9.23438 41.0062 8.93229 41.4906 8.71875C41.9802 8.5 42.5323 8.39062 43.1469 8.39062C43.7667 8.39062 44.3187 8.5 44.8031 8.71875C45.2927 8.93229 45.7068 9.23438 46.0453 9.625C46.3839 10.0104 46.6417 10.4661 46.8187 10.9922C46.9958 11.513 47.0844 12.0781 47.0844 12.6875V12.8672C47.0844 13.4766 46.9958 14.0417 46.8187 14.5625C46.6417 15.0833 46.3839 15.5391 46.0453 15.9297C45.7068 16.3151 45.2953 16.6172 44.8109 16.8359C44.3266 17.0495 43.7771 17.1562 43.1625 17.1562C42.5427 17.1562 41.988 17.0495 41.4984 16.8359C41.0141 16.6172 40.6026 16.3151 40.2641 15.9297C39.9255 15.5391 39.6677 15.0833 39.4906 14.5625C39.3135 14.0417 39.225 13.4766 39.225 12.8672ZM41.1078 12.6875V12.8672C41.1078 13.2474 41.1469 13.6068 41.225 13.9453C41.3031 14.2839 41.4255 14.5807 41.5922 14.8359C41.7589 15.0911 41.9724 15.2917 42.2328 15.4375C42.4932 15.5833 42.8031 15.6562 43.1625 15.6562C43.5115 15.6562 43.8135 15.5833 44.0687 15.4375C44.3292 15.2917 44.5427 15.0911 44.7094 14.8359C44.876 14.5807 44.9984 14.2839 45.0766 13.9453C45.1599 13.6068 45.2016 13.2474 45.2016 12.8672V12.6875C45.2016 12.3125 45.1599 11.9583 45.0766 11.625C44.9984 11.2865 44.8734 10.987 44.7016 10.7266C44.5349 10.4661 44.3214 10.263 44.0609 10.1172C43.8057 9.96615 43.501 9.89062 43.1469 9.89062C42.7927 9.89062 42.4854 9.96615 42.225 10.1172C41.9698 10.263 41.7589 10.4661 41.5922 10.7266C41.4255 10.987 41.3031 11.2865 41.225 11.625C41.1469 11.9583 41.1078 12.3125 41.1078 12.6875Z" fill="#404BBF"/>
<rect y="44" width="48" height="4" rx="2" fill="#404BBF"/>
</svg>
